<?xml version="1.0" standalone="no"?>
<!DOCTYPE svg PUBLIC "-//W3C//DTD SVG 20010904//EN"
 "http://www.w3.org/TR/2001/REC-SVG-20010904/DTD/svg10.dtd">
<svg version="1.0" xmlns="http://www.w3.org/2000/svg"
 width="198.000000pt" height="198.000000pt" viewBox="0 0 198.000000 198.000000"
 preserveAspectRatio="xMidYMid meet">
<metadata>
Created by potrace 1.11, written by Peter Selinger 2001-2013
</metadata>
<g transform="translate(0.000000,198.000000) scale(0.100000,-0.100000)"
fill="#000000" stroke="none">
<path d="M0 990 l0 -990 990 0 990 0 0 990 0 990 -990 0 -990 0 0 -990z m1226
380 c10 -94 15 -112 34 -128 18 -14 22 -25 16 -45 -3 -15 -12 -27 -18 -27 -9
0 -9 3 0 12 30 30 -4 77 -41 57 -20 -12 -23 -39 -3 -39 7 0 16 -8 18 -17 4
-16 -4 -18 -89 -15 -72 3 -93 7 -93 18 0 11 16 14 70 14 53 0 70 3 70 14 0 7
7 20 16 27 17 14 16 74 -2 209 -4 25 -3 41 2 37 5 -4 14 -57 20 -117z m-457
-10 c-9 -82 -9 -114 0 -119 6 -4 -4 -7 -22 -7 -31 0 -32 1 -16 17 11 11 18 43
23 100 8 89 16 133 23 126 2 -3 -1 -55 -8 -117z m259 -72 c21 -21 14 -57 -14
-70 -31 -14 -57 -1 -62 31 -7 42 46 69 76 39z m-290 -116 c12 -2 22 2 22 8 0
6 7 18 15 26 8 9 15 11 15 5 0 -7 28 -11 75 -11 57 0 75 -3 75 -14 0 -10 -26
-15 -107 -18 -114 -6 -134 0 -132 36 1 18 2 18 8 -4 4 -15 15 -26 29 -28z
m263 -2 c11 0 22 7 26 16 4 12 9 8 20 -17 12 -27 13 -69 8 -214 -4 -99 -9
-187 -11 -197 -7 -23 -91 -23 -98 0 -10 31 -14 392 -5 398 5 3 9 14 9 25 0 19
1 19 16 5 8 -9 24 -16 35 -16z m12 19 c-8 -8 -16 -8 -30 0 -16 9 -14 10 12 11
21 0 26 -3 18 -11z m7 -630 c0 -66 -24 -62 -28 4 -2 37 0 47 12 47 12 0 16
-12 16 -51z m50 41 c0 -5 -7 -10 -15 -10 -8 0 -15 5 -15 10 0 6 7 10 15 10 8
0 15 -4 15 -10z m180 -5 c0 -8 9 -15 20 -15 16 0 20 -7 20 -35 0 -43 -29 -50
-31 -7 l-2 27 -4 -27 c-2 -16 -11 -28 -19 -28 -10 0 -14 13 -14 50 0 38 4 50
15 50 8 0 15 -7 15 -15z m260 5 c0 -5 -7 -10 -15 -10 -8 0 -15 5 -15 10 0 6 7
10 15 10 8 0 15 -4 15 -10z m-1149 -22 l2 -23 4 23 c2 12 11 22 19 22 8 0 15
-10 15 -22 l2 -23 4 23 c8 39 23 24 23 -23 0 -38 -3 -45 -20 -45 -14 0 -20 7
-21 23 l-2 22 -4 -22 c-3 -15 -12 -23 -24 -23 -13 0 -19 7 -19 23 0 12 -3 32
-6 45 -5 16 -2 22 10 22 10 0 17 -9 17 -22z m529 12 c0 -5 -7 -10 -16 -10 -10
0 -14 -7 -12 -22 2 -13 9 -22 16 -20 6 1 12 -5 12 -13 0 -18 -31 -20 -48 -3
-13 13 -16 60 -5 71 10 11 53 8 53 -3z m301 3 c8 -56 4 -84 -9 -81 -20 4 -35
58 -20 75 12 14 27 17 29 6z m-710 -30 c1 -17 2 -17 6 0 2 9 11 17 19 17 15 0
11 -35 -8 -72 -10 -20 -33 -24 -43 -8 -3 6 -1 10 5 10 10 0 8 15 -7 58 -3 6 2
12 11 12 9 0 17 -8 17 -17z m109 6 c0 -6 -8 -8 -17 -5 -16 5 -16 4 1 -8 11 -9
16 -22 13 -31 -7 -16 -47 -21 -47 -5 0 6 5 10 11 10 6 0 3 7 -5 16 -9 8 -14
20 -11 25 9 13 55 11 55 -2z m70 5 c0 -3 -5 -14 -10 -25 -7 -13 -7 -19 0 -19
5 0 10 -4 10 -10 0 -5 -13 -10 -30 -10 -33 0 -35 3 -20 31 7 13 7 19 0 19 -5
0 -10 5 -10 10 0 6 14 10 30 10 17 0 30 -3 30 -6z m85 -14 c8 -27 -12 -52 -39
-48 -16 2 -22 11 -24 36 -3 30 -1 32 27 32 21 0 32 -6 36 -20z m225 -14 c0
-32 -2 -35 -27 -33 -32 3 -46 36 -16 38 16 1 17 2 1 6 -29 7 -20 23 12 23 28
0 30 -3 30 -34z m100 -1 c0 -24 -5 -35 -15 -35 -10 0 -15 11 -15 35 0 24 5 35
15 35 10 0 15 -11 15 -35z m67 3 c-2 -26 -7 -34 -24 -36 -13 -2 -23 1 -23 7 0
6 8 11 18 11 16 1 16 1 0 11 -26 15 -22 39 6 39 21 0 24 -4 23 -32z m237 17
c4 -10 -2 -19 -17 -25 -17 -7 -18 -9 -4 -9 20 -1 23 -21 3 -21 -29 0 -46 13
-46 34 0 13 3 26 7 29 12 13 51 7 57 -8z m86 -20 c0 -43 -29 -50 -31 -7 l-2
27 -4 -27 c-6 -42 -33 -36 -33 7 0 33 2 35 35 35 33 0 35 -2 35 -35z m50 0 c0
-24 -5 -35 -15 -35 -10 0 -15 11 -15 35 0 24 5 35 15 35 10 0 15 -11 15 -35z
m70 25 c0 -5 -4 -10 -10 -10 -5 0 -10 -7 -10 -15 0 -8 5 -15 10 -15 6 0 10 -5
10 -11 0 -6 -10 -9 -22 -7 -39 5 -37 68 2 68 11 0 20 -4 20 -10z m70 0 c0 -5
-6 -10 -12 -10 -9 0 -9 -3 1 -9 19 -12 6 -41 -19 -41 -11 0 -20 5 -20 10 0 6
5 10 12 10 6 0 4 6 -7 13 -10 8 -15 19 -11 25 9 15 56 16 56 2z m-830 -70 c0
-5 -13 -10 -30 -10 -16 0 -30 5 -30 10 0 6 14 10 30 10 17 0 30 -4 30 -10z"/>
<path d="M994 885 c0 -55 1 -76 3 -47 2 29 2 74 0 100 -2 26 -3 2 -3 -53z"/>
<path d="M711 544 c0 -11 3 -14 6 -6 3 7 2 16 -1 19 -3 4 -6 -2 -5 -13z"/>
</g>
</svg>
